<svg width="53.681" xmlns="http://www.w3.org/2000/svg" height="45" viewBox="1434.159 1051 53.681 45" fill="none"><path d="M1463.729,1093.580C1463.729,1094.383,1463.723,1095.186,1463.723,1095.994C1471.762,1096.004,1479.802,1095.994,1487.841,1095.999C1487.841,1095.196,1487.835,1094.393,1487.835,1093.590C1486.219,1093.305,1484.224,1092.907,1483.602,1091.368C1477.428,1077.926,1471.164,1064.510,1465.073,1051.043C1460.621,1050.976,1456.169,1051.001,1451.718,1051.027C1452.546,1052.654,1453.239,1054.332,1454.097,1055.948C1448.882,1067.805,1443.584,1079.641,1438.291,1091.472C1437.693,1092.979,1435.734,1093.316,1434.165,1093.601C1434.165,1094.393,1434.159,1095.191,1434.159,1095.989C1439.286,1096.010,1444.412,1095.994,1449.539,1095.999C1449.533,1095.186,1449.533,1094.378,1449.527,1093.570C1447.917,1093.352,1446.070,1093.378,1444.762,1092.404C1443.732,1091.534,1444.188,1090.177,1444.614,1089.157C1445.638,1086.841,1446.609,1084.505,1447.728,1082.221C1453.938,1082.252,1460.142,1082.216,1466.352,1082.236C1467.204,1084.090,1468.057,1085.950,1468.909,1087.810C1469.477,1089.063,1469.993,1090.467,1469.531,1091.814C1468.335,1093.549,1465.742,1093.446,1463.729,1093.580ZZM1449.581,1077.911C1451.960,1072.379,1454.482,1066.888,1456.815,1061.340C1459.331,1066.867,1461.864,1072.389,1464.386,1077.911C1459.451,1077.932,1454.516,1077.932,1449.581,1077.911ZZ" style="stroke-width: 0.264583; fill: rgb(255, 255, 255); fill-opacity: 1;" class="fills"/></svg>