<svg width="57.423" xmlns="http://www.w3.org/2000/svg" height="50.625" viewBox="1063.788 1045 57.423 50.625" fill="none"><path d="M1075.608,1091.258C1069.402,1080.131,1065.710,1073.411,1065.710,1073.245C1065.710,1072.972,1066.089,1073.010,1069.818,1073.650C1076.375,1074.777,1079.879,1075.094,1085.720,1075.096C1093.447,1075.098,1099.739,1074.027,1104.628,1071.876C1107.215,1070.737,1108.770,1069.728,1110.044,1068.361C1111.613,1066.676,1112.117,1065.515,1112.135,1063.562C1112.151,1061.705,1111.865,1060.725,1110.637,1058.452C1110.151,1057.554,1109.724,1056.523,1109.683,1056.161C1109.619,1055.579,1109.674,1055.495,1110.164,1055.446C1111.236,1055.335,1116.527,1059.829,1118.475,1062.505C1121.834,1067.121,1122.106,1072.114,1119.263,1076.942C1117.517,1079.908,1115.587,1081.961,1112.356,1084.294C1106.985,1088.168,1100.743,1090.866,1092.123,1093.040C1087.493,1094.208,1080.006,1095.625,1078.465,1095.625C1078.138,1095.625,1077.524,1094.687,1075.608,1091.258ZL1075.608,1091.258ZZM1077.336,1073.314C1071.307,1072.630,1066.248,1072.036,1066.091,1071.993C1065.824,1071.917,1064.865,1069.120,1064.325,1066.843C1064.189,1066.266,1063.989,1064.740,1063.880,1063.449C1063.394,1057.687,1064.826,1053.703,1068.666,1050.121C1075.167,1044.061,1089.087,1043.324,1104.792,1048.207C1107.548,1049.066,1108.643,1049.662,1108.137,1050.033C1107.762,1050.307,1105.223,1050.303,1100.836,1050.021C1093.978,1049.580,1088.758,1050.415,1086.067,1052.386C1081.971,1055.386,1082.595,1061.963,1087.879,1071.450C1088.452,1072.477,1089.028,1073.482,1089.160,1073.687C1089.467,1074.158,1089.244,1074.595,1088.711,1074.573C1088.483,1074.564,1083.365,1073.998,1077.336,1073.314ZZM1097.561,1068.152C1092.750,1067.395,1088.424,1064.784,1087.027,1061.798C1086.357,1060.363,1086.389,1058.492,1087.105,1057.371C1087.752,1056.358,1089.423,1055.186,1090.919,1054.695C1093.410,1053.878,1097.773,1054.204,1100.952,1055.446C1103.969,1056.624,1106.644,1058.697,1107.639,1060.624C1108.915,1063.098,1107.852,1065.858,1105.118,1067.175C1103.306,1068.047,1099.784,1068.502,1097.561,1068.152ZL1097.561,1068.152ZZ" style="stroke-width: 0.0675235; fill: rgb(255, 255, 255); fill-opacity: 1;" class="fills"/></svg>