<svg width="60" xmlns="http://www.w3.org/2000/svg" height="60" viewBox="1431 945 60 60" fill="none"><path d="M1461.000,945.000C1444.424,945.000,1431.000,958.764,1431.000,975.759C1431.000,989.371,1439.588,1000.866,1451.512,1004.940C1453.012,1005.210,1453.573,1004.287,1453.573,1003.480C1453.573,1002.750,1453.537,1000.329,1453.537,997.750C1446.000,999.173,1444.052,995.867,1443.452,994.139C1443.113,993.253,1441.652,990.522,1440.374,989.792C1439.325,989.215,1437.825,987.791,1440.337,987.754C1442.701,987.717,1444.389,989.985,1444.952,990.908C1447.652,995.561,1451.965,994.251,1453.689,993.443C1453.950,991.445,1454.738,990.099,1455.602,989.329C1448.926,988.562,1441.953,985.908,1441.953,974.142C1441.953,970.799,1443.114,968.030,1445.026,965.877C1444.726,965.107,1443.677,961.954,1445.327,957.724C1445.327,957.724,1447.839,956.917,1453.578,960.878C1455.978,960.185,1458.526,959.840,1461.077,959.840C1463.626,959.840,1466.177,960.188,1468.577,960.878C1474.316,956.879,1476.826,957.724,1476.826,957.724C1478.477,961.953,1477.425,965.107,1477.126,965.877C1479.038,968.030,1480.202,970.758,1480.202,974.142C1480.202,985.945,1473.189,988.559,1466.514,989.329C1467.602,990.292,1468.539,992.137,1468.539,995.021C1468.539,999.135,1468.502,1002.440,1468.502,1003.478C1468.502,1004.286,1469.066,1005.249,1470.563,1004.941C1482.415,1000.866,1491.000,989.331,1491.000,975.759C1491.000,958.764,1477.576,945.000,1461.000,945.000ZZ" text-rendering="geometricPrecision" image-rendering="optimizeQuality" clip-rule="evenodd" shape-rendering="geometricPrecision" style="fill: rgb(255, 255, 255);" class="fills"/></svg>