<svg width="60" xmlns="http://www.w3.org/2000/svg" height="60" viewBox="1062.5 1136 60 60" fill="none"><path d="M1082.500,1166.018C1082.490,1160.496,1086.959,1156.011,1092.480,1156.001C1098.002,1155.990,1102.489,1160.457,1102.499,1165.981C1102.510,1171.503,1098.041,1175.988,1092.518,1175.999C1086.997,1176.010,1082.510,1171.541,1082.500,1166.018ZZM1077.096,1166.029C1077.113,1174.537,1084.023,1181.419,1092.529,1181.402C1101.036,1181.386,1107.921,1174.478,1107.905,1165.970C1107.888,1157.465,1100.977,1150.579,1092.469,1150.595C1083.963,1150.612,1077.080,1157.523,1077.096,1166.029ZZM1104.882,1149.964C1104.886,1151.950,1106.501,1153.559,1108.488,1153.555C1110.476,1153.551,1112.084,1151.937,1112.081,1149.950C1112.078,1147.963,1110.462,1146.354,1108.474,1146.358C1106.487,1146.361,1104.878,1147.977,1104.882,1149.964ZZM1080.425,1190.440C1077.501,1190.313,1075.912,1189.827,1074.854,1189.420C1073.452,1188.877,1072.452,1188.227,1071.399,1187.182C1070.349,1186.133,1069.696,1185.136,1069.149,1183.737C1068.738,1182.679,1068.243,1181.092,1068.106,1178.168C1067.957,1175.006,1067.923,1174.057,1067.909,1166.047C1067.893,1158.038,1067.923,1157.090,1068.061,1153.925C1068.186,1151.002,1068.675,1149.412,1069.081,1148.354C1069.623,1146.950,1070.272,1145.952,1071.319,1144.899C1072.367,1143.847,1073.365,1143.196,1074.764,1142.649C1075.822,1142.236,1077.408,1141.745,1080.332,1141.606C1083.496,1141.457,1084.444,1141.424,1092.452,1141.409C1100.462,1141.393,1101.411,1141.422,1104.576,1141.561C1107.498,1141.688,1109.089,1142.172,1110.145,1142.581C1111.548,1143.124,1112.548,1143.770,1113.600,1144.819C1114.651,1145.868,1115.304,1146.863,1115.851,1148.266C1116.264,1149.320,1116.755,1150.908,1116.893,1153.831C1117.044,1156.995,1117.078,1157.944,1117.092,1165.952C1117.108,1173.963,1117.078,1174.911,1116.940,1178.074C1116.812,1180.999,1116.327,1182.588,1115.919,1183.648C1115.377,1185.048,1114.728,1186.049,1113.680,1187.101C1112.633,1188.150,1111.635,1188.804,1110.235,1189.352C1109.179,1189.764,1107.591,1190.256,1104.669,1190.395C1101.505,1190.543,1100.557,1190.577,1092.546,1190.592C1084.538,1190.607,1083.590,1190.577,1080.425,1190.440ZZM1080.075,1136.208C1076.883,1136.358,1074.703,1136.870,1072.798,1137.616C1070.826,1138.385,1069.154,1139.415,1067.491,1141.085C1065.826,1142.756,1064.803,1144.431,1064.040,1146.405C1063.302,1148.315,1062.801,1150.496,1062.660,1153.690C1062.520,1156.890,1062.488,1157.911,1062.504,1166.057C1062.519,1174.203,1062.555,1175.225,1062.708,1178.426C1062.860,1181.617,1063.370,1183.797,1064.116,1185.703C1064.886,1187.675,1065.915,1189.346,1067.586,1191.010C1069.256,1192.674,1070.932,1193.696,1072.907,1194.460C1074.815,1195.197,1076.997,1195.700,1080.190,1195.840C1083.390,1195.981,1084.411,1196.012,1092.556,1195.996C1100.704,1195.981,1101.726,1195.945,1104.926,1195.793C1108.118,1195.640,1110.296,1195.129,1112.203,1194.385C1114.175,1193.613,1115.847,1192.586,1117.510,1190.915C1119.173,1189.245,1120.196,1187.569,1120.959,1185.594C1121.697,1183.686,1122.200,1181.504,1122.339,1178.312C1122.479,1175.111,1122.512,1174.088,1122.496,1165.943C1122.481,1157.796,1122.444,1156.776,1122.292,1153.577C1122.141,1150.383,1121.629,1148.204,1120.884,1146.297C1120.113,1144.325,1119.085,1142.655,1117.415,1140.990C1115.745,1139.327,1114.069,1138.302,1112.094,1137.541C1110.185,1136.803,1108.004,1136.299,1104.811,1136.161C1101.611,1136.019,1100.589,1135.988,1092.442,1136.004C1084.297,1136.019,1083.275,1136.054,1080.075,1136.208ZZ" text-rendering="geometricPrecision" image-rendering="optimizeQuality" clip-rule="evenodd" shape-rendering="geometricPrecision" style="fill: rgb(255, 255, 255);" class="fills"/></svg>