<svg width="60" xmlns="http://www.w3.org/2000/svg" height="60" viewBox="1062.5 945 60 60" fill="none"><path d="M1115.950,988.703C1116.039,988.703,1116.125,988.712,1116.210,988.729C1116.770,987.753,1117.280,986.729,1117.741,985.660C1117.750,985.638,1117.759,985.618,1117.770,985.597C1118.462,983.964,1118.985,982.267,1119.337,980.510C1119.610,979.146,1119.778,977.747,1119.842,976.315L1111.594,976.315C1111.444,980.501,1110.194,984.630,1107.864,988.703L1115.950,988.703ZL1115.950,988.703ZZM1114.512,991.333L1106.204,991.333C1103.683,994.986,1100.286,998.594,1096.030,1002.157C1096.697,1002.074,1097.357,1001.967,1098.010,1001.837C1099.790,1001.481,1101.508,1000.950,1103.160,1000.243L1103.160,1000.241C1104.840,999.519,1106.405,998.673,1107.851,997.703C1109.301,996.730,1110.645,995.625,1111.880,994.385L1111.885,994.380L1111.885,994.380C1112.840,993.428,1113.716,992.412,1114.512,991.333ZL1114.512,991.333ZZM1088.970,1002.156C1084.714,998.594,1081.317,994.986,1078.795,991.333L1070.489,991.333C1071.285,992.412,1072.160,993.428,1073.115,994.380L1073.120,994.385L1073.120,994.385C1074.356,995.625,1075.699,996.730,1077.149,997.703C1078.595,998.673,1080.160,999.519,1081.840,1000.241C1081.861,1000.250,1081.882,1000.260,1081.903,1000.270C1083.536,1000.963,1085.233,1001.485,1086.991,1001.837C1087.643,1001.967,1088.302,1002.074,1088.970,1002.156ZL1088.970,1002.156ZZM1068.775,988.703L1077.136,988.703C1074.806,984.630,1073.556,980.501,1073.407,976.315L1065.159,976.315C1065.222,977.747,1065.391,979.145,1065.664,980.509C1066.020,982.289,1066.551,984.007,1067.257,985.660L1067.259,985.660C1067.716,986.720,1068.221,987.735,1068.775,988.703ZL1068.775,988.703ZZM1065.159,973.685L1073.458,973.685C1073.763,969.584,1075.124,965.454,1077.563,961.297L1068.775,961.297C1068.221,962.265,1067.716,963.280,1067.259,964.341C1067.250,964.362,1067.240,964.383,1067.231,964.403C1066.538,966.037,1066.016,967.733,1065.664,969.491C1065.391,970.855,1065.222,972.253,1065.159,973.685ZL1065.159,973.685ZZM1070.489,958.668L1079.248,958.668C1081.742,955.073,1085.040,951.458,1089.155,947.822C1088.425,947.907,1087.703,948.021,1086.991,948.164C1085.211,948.520,1083.493,949.051,1081.840,949.757L1081.841,949.759C1080.160,950.482,1078.595,951.327,1077.149,952.298C1075.700,953.271,1074.356,954.376,1073.121,955.615L1073.115,955.620L1073.115,955.620C1072.160,956.572,1071.285,957.588,1070.489,958.668ZL1070.489,958.668ZZM1095.845,947.821C1099.960,951.458,1103.258,955.073,1105.752,958.667L1114.512,958.667C1113.715,957.588,1112.840,956.572,1111.884,955.620L1111.879,955.615L1111.879,955.615C1110.644,954.375,1109.301,953.271,1107.851,952.298C1106.404,951.327,1104.839,950.482,1103.159,949.759C1103.138,949.750,1103.117,949.740,1103.097,949.730C1101.463,949.038,1099.767,948.515,1098.009,948.164C1097.297,948.021,1096.575,947.907,1095.845,947.821ZL1095.845,947.821ZZM1116.225,961.297L1107.436,961.297C1109.876,965.454,1111.237,969.584,1111.542,973.685L1119.842,973.685C1119.778,972.253,1119.609,970.855,1119.336,969.491C1118.980,967.711,1118.449,965.993,1117.743,964.340L1117.741,964.341C1117.284,963.280,1116.780,962.265,1116.225,961.297ZL1116.225,961.297ZZM1086.478,945.585C1088.427,945.195,1090.435,945.000,1092.500,945.000C1094.566,945.000,1096.573,945.195,1098.522,945.585C1100.443,945.970,1102.310,946.547,1104.124,947.317C1104.149,947.326,1104.173,947.335,1104.197,947.345C1106.005,948.124,1107.711,949.047,1109.309,950.121C1110.905,951.191,1112.381,952.404,1113.736,953.764C1115.096,955.119,1116.310,956.596,1117.379,958.191C1118.452,959.790,1119.376,961.495,1120.155,963.304L1120.153,963.305L1120.155,963.309C1120.939,965.144,1121.526,967.034,1121.915,968.978C1122.305,970.927,1122.500,972.935,1122.500,975.000C1122.500,977.066,1122.305,979.074,1121.915,981.023C1121.531,982.943,1120.953,984.811,1120.183,986.625C1120.174,986.649,1120.165,986.673,1120.154,986.697C1119.376,988.506,1118.452,990.211,1117.379,991.810C1116.309,993.405,1115.096,994.881,1113.736,996.236C1112.381,997.596,1110.904,998.810,1109.309,999.880C1107.711,1000.953,1106.004,1001.877,1104.196,1002.655L1104.195,1002.653L1104.190,1002.655C1102.355,1003.439,1100.465,1004.026,1098.522,1004.415C1096.573,1004.805,1094.565,1005.000,1092.500,1005.000C1090.435,1005.000,1088.426,1004.805,1086.477,1004.415C1084.557,1004.031,1082.689,1003.453,1080.875,1002.684C1080.851,1002.674,1080.827,1002.666,1080.803,1002.655C1078.994,1001.877,1077.289,1000.953,1075.690,999.879C1074.095,998.810,1072.618,997.596,1071.263,996.236C1069.903,994.881,1068.690,993.404,1067.620,991.809C1066.547,990.211,1065.623,988.505,1064.845,986.696L1064.847,986.695L1064.845,986.691C1064.061,984.856,1063.474,982.966,1063.085,981.022C1062.695,979.074,1062.500,977.066,1062.500,975.000C1062.500,972.935,1062.695,970.926,1063.085,968.977C1063.470,967.057,1064.047,965.189,1064.817,963.375C1064.826,963.351,1064.835,963.327,1064.845,963.303C1065.624,961.494,1066.547,959.789,1067.621,958.190C1068.691,956.595,1069.904,955.118,1071.264,953.763C1072.619,952.403,1074.095,951.190,1075.690,950.120C1077.289,949.046,1078.995,948.123,1080.803,947.344L1080.804,947.346L1080.808,947.344C1082.644,946.561,1084.534,945.974,1086.478,945.585ZL1086.478,945.585ZZM1093.815,949.525L1093.815,958.668L1102.519,958.668C1100.232,955.652,1097.334,952.605,1093.815,949.525ZL1093.815,949.525ZZM1093.815,961.297L1093.815,973.685L1108.914,973.685C1108.573,969.617,1107.064,965.488,1104.364,961.297L1093.815,961.297ZL1093.815,961.297ZZM1093.815,976.315L1093.815,988.703L1104.806,988.703C1107.408,984.603,1108.805,980.473,1108.972,976.315L1093.815,976.315ZL1093.815,976.315ZZM1093.815,991.333L1093.815,1000.587C1097.548,997.519,1100.603,994.434,1102.969,991.333L1093.815,991.333ZL1093.815,991.333ZZM1091.185,1000.588L1091.185,991.333L1082.031,991.333C1084.396,994.434,1087.451,997.519,1091.185,1000.588ZL1091.185,1000.588ZZM1091.185,988.703L1091.185,976.315L1076.028,976.315C1076.195,980.474,1077.591,984.603,1080.194,988.703L1091.185,988.703ZL1091.185,988.703ZZM1091.185,973.685L1091.185,961.297L1080.636,961.297C1077.937,965.488,1076.428,969.617,1076.086,973.685L1091.185,973.685ZL1091.185,973.685ZZM1091.185,958.668L1091.185,949.524C1087.666,952.604,1084.768,955.652,1082.481,958.668L1091.185,958.668ZL1091.185,958.668ZZ" style="fill: rgb(255, 255, 255); fill-opacity: 1;" class="fills"/></svg>