<svg width="60" xmlns="http://www.w3.org/2000/svg" height="42.204" viewBox="1431 1146.898 60 42.204" fill="none"><path d="M1490.388,1156.004C1490.388,1156.004,1489.802,1151.868,1487.999,1150.052C1485.715,1147.663,1483.157,1147.648,1481.988,1147.510C1473.598,1146.898,1460.997,1146.898,1460.997,1146.898L1460.975,1146.898C1460.975,1146.898,1448.380,1146.898,1439.985,1147.510C1438.812,1147.652,1436.257,1147.662,1433.974,1150.052C1432.170,1151.868,1431.597,1156.004,1431.597,1156.004C1431.597,1156.004,1431.000,1160.857,1431.000,1165.720L1431.000,1170.268C1431.000,1175.121,1431.597,1179.984,1431.597,1179.984C1431.597,1179.984,1432.183,1184.120,1433.974,1185.939C1436.257,1188.328,1439.258,1188.250,1440.598,1188.505C1445.401,1188.963,1461.002,1189.102,1461.002,1189.102C1461.002,1189.102,1473.613,1189.080,1482.003,1188.479C1483.177,1188.341,1485.730,1188.327,1488.015,1185.937C1489.818,1184.121,1490.403,1179.981,1490.403,1179.981C1490.403,1179.981,1491.000,1175.128,1491.000,1170.264L1491.000,1165.717C1490.988,1160.863,1490.391,1156.000,1490.388,1156.004ZL1490.388,1156.004ZZM1454.782,1175.785L1454.782,1158.922L1470.990,1167.382L1454.782,1175.785ZZ" text-rendering="geometricPrecision" image-rendering="optimizeQuality" fill-rule="evenodd" clip-rule="evenodd" shape-rendering="geometricPrecision" style="fill: rgb(255, 255, 255); fill-opacity: 1;" class="fills"/></svg>